<?xml version="1.0" encoding="ISO-8859-1"?>
<svg xmlns="http://www.w3.org/2000/svg" version="1.1" viewBox="0 0 128 128">
  <g stroke='#aa0033' fill="none" stroke-width="8" stroke-linecap="round" 
      stroke-linejoin="round" >
    <polyline points="
      90.39821726225587,14.612409196492116
      95.1119330490977,17.437701711057457
      99.52602391316415,20.711414611686735
      103.59797974644665,24.40202025355333
      107.28858538831324,28.473976086835826
      110.56229828894254,32.88806695090228
      113.38759080350786,37.60178273774412
      115.73725382063205,42.56972778755494
      117.5886588010037,47.7440580737501
      118.92397570258089,53.07494196709679
      119.73034469364302,58.51104014154461
      120.0,64
      119.73034469364302,69.48895985845539
      118.9239757025809,74.92505803290318
      117.5886588010037,80.25594192624989
      115.73725382063205,85.43027221244503
      113.38759080350789,90.39821726225587
      110.56229828894254,95.11193304909773
      107.28858538831327,99.52602391316415
      103.59797974644667,103.59797974644665
      99.52602391316415,107.28858538831327
      95.11193304909773,110.56229828894254
      90.39821726225588,113.38759080350788
      85.43027221244503,115.73725382063205
      80.25594192624989,117.5886588010037
      74.92505803290318,118.9239757025809
      69.4889598584554,119.73034469364302
      64.0,120.0
      58.511040141544605,119.73034469364302
      53.07494196709682,118.9239757025809
      47.74405807375012,117.5886588010037
      42.569727787554974,115.73725382063205
      37.60178273774413,113.38759080350789
      32.88806695090229,110.56229828894254
      28.47397608683586,107.28858538831328
      24.402020253553346,103.59797974644667
      20.711414611686727,99.52602391316415
      17.437701711057457,95.11193304909773
      14.612409196492123,90.39821726225588
      12.262746179367944,85.43027221244503
      10.411341198996304,80.25594192624989
      9.076024297419096,74.9250580329032
      8.26965530635698,69.4889598584554
      8.0,64.0
      8.269655306356974,58.511040141544605
      9.076024297419096,53.07494196709681
      10.411341198996297,47.744058073750125
      12.262746179367937,42.56972778755498
      14.612409196492116,37.60178273774413
      17.437701711057457,32.88806695090229
      20.71141461168672,28.47397608683586
      24.40202025355333,24.402020253553346
      28.473976086835826,20.71141461168675
      32.88806695090228,17.437701711057464
      37.60178273774412,14.612409196492123
      "/>
    <line x1="64" x2="64" y1="4" y2="56"/>
  </g>
</svg>

