<?xml version="1.0" encoding="utf-8"?>
<!-- Generator: Adobe Illustrator 14.0.0, SVG Export Plug-In . SVG Version: 6.00 Build 43363)  -->
<!DOCTYPE svg PUBLIC "-//W3C//DTD SVG 1.1//EN" "http://www.w3.org/Graphics/SVG/1.1/DTD/svg11.dtd">
<svg version="1.1" id="Layer_1" xmlns="http://www.w3.org/2000/svg" xmlns:xlink="http://www.w3.org/1999/xlink" x="0px" y="0px"
	 width="128px" height="128px" viewBox="0 0 128 128" enable-background="new 0 0 128 128" xml:space="preserve">
<g>
	<path fill="#7A5FA9" d="M8.055,66.868v29.433H21.45l2.935,5.236H1.354V66.868H8.055z"/>
	<path fill="#7A5FA9" d="M33.262,77.911c2.978,0,5.253,0.633,6.825,1.898s2.358,3.032,2.358,5.299v11.341
		c0,0.877,0.502,1.42,1.214,1.42c0.298,0,0.545-0.111,0.979-0.312c0.519-0.24,0.883-0.581,1.29-0.901l2.251,3.256
		c-2.042,1.792-4.646,2.812-6.813,2.812c-1.354,0-2.875-0.479-3.562-1.042c-0.539-0.44-1.06-1.253-1.291-2.18
		c-2.333,1.654-4.674,2.482-7.023,2.482c-1.671,0-3.106-0.562-4.306-1.688c-1.199-1.124-1.799-2.473-1.799-4.045
		c0-2.001,0.596-3.581,1.787-4.74c1.191-1.157,3.276-2.167,6.254-3.027l4.939-1.439v-1.067c0-2.266-1.374-3.399-4.12-3.399
		c-1.406,0-2.804,0.322-4.194,0.968c-1.39,0.646-2.656,1.597-3.797,2.854v-5.484C26.785,78.912,29.787,77.911,33.262,77.911z
		 M29.539,95.333c0,0.844,0.269,1.522,0.807,2.035s1.204,0.769,1.998,0.769c1.34,0,2.68-0.611,4.021-1.836v-6.105
		c-1.705,0.58-3.04,1.126-4.008,1.639c-0.968,0.513-1.679,1.034-2.134,1.563S29.539,94.572,29.539,95.333z"/>
	<path fill="#7A5FA9" d="M58.044,77.911c2.696,0,4.532,0.472,6.715,1.515l-3.143,3.756c-0.642-0.215-1.375-0.438-2.406-0.406
		c-2.083,0.062-3.789,0.649-5.112,1.948s-1.985,3.057-1.985,5.273c0,2.168,0.666,3.913,1.998,5.236
		c1.332,1.324,3.106,1.985,5.323,1.985c1.654,0,3.233-0.324,5.814-1.416l1.539,4.217c-2.398,0.977-5.873,1.965-8.42,1.965
		c-3.756,0-6.804-1.076-9.145-3.227c-2.342-2.15-3.512-5.005-3.512-8.562c0-3.688,1.146-6.658,3.438-8.909
		C51.439,79.037,54.404,77.911,58.044,77.911z"/>
	<path fill="#7A5FA9" d="M73.928,72.203h0.496v6.155h7.941v4.616h-7.941V93.67c0,1.043,0.314,1.887,0.943,2.531
		c0.629,0.646,1.152,0.962,2.244,0.962c1.423,0,2.365-0.609,3.943-1.64l2.596,3.96c-2.82,1.865-5.057,2.501-6.992,2.501
		c-2.615,0-5.154-0.712-6.617-2.135c-1.465-1.423-2.197-3.351-2.197-5.782V82.975h-3.623v-0.993L73.928,72.203z"/>
	<path fill="#7A5FA9" d="M95.285,77.911c2.416,0,4.607,0.505,6.576,1.515c1.969,1.009,3.49,2.424,4.566,4.243
		c1.076,1.82,1.613,3.88,1.613,6.18c0,2.398-0.518,4.5-1.551,6.304c-1.035,1.803-2.557,3.226-4.566,4.268
		c-2.01,1.043-4.223,1.564-6.639,1.564c-2.432,0-4.641-0.521-6.627-1.564c-1.984-1.042-3.494-2.465-4.528-4.268
		c-1.034-1.804-1.552-3.905-1.552-6.304c0-2.333,0.547-4.405,1.639-6.217s2.613-3.218,4.566-4.219
		C90.734,78.412,92.902,77.911,95.285,77.911z M88.982,89.849c0,2.316,0.566,4.165,1.699,5.546c1.133,1.382,2.65,2.072,4.555,2.072
		c1.984,0,3.549-0.661,4.689-1.985c1.143-1.323,1.713-3.218,1.713-5.683c0-2.35-0.576-4.165-1.725-5.447
		c-1.15-1.282-2.71-1.924-4.678-1.924c-1.854,0-3.359,0.679-4.518,2.035C89.561,85.82,88.982,87.615,88.982,89.849z"/>
	<path fill="#7A5FA9" d="M121.862,77.911c0.811,0,1.608,0.183,2.396,0.546c0.785,0.364,1.699,0.977,2.742,1.837l-2.184,5.335
		c-1.771-1.323-3.193-1.984-4.27-1.984c-0.943,0-1.873,0.352-2.791,1.055c-0.919,0.703-1.655,1.634-2.209,2.791
		c-0.555,1.158-0.832,2.316-0.832,3.475v10.572h-6.105V78.358h6.105v5.906h0.1c1.107-2.233,2.225-3.851,3.35-4.852
		S120.521,77.911,121.862,77.911z"/>
</g>
<path fill="none" stroke="#B34443" d="M30.149,106.871"/>
<path fill="none" stroke="#B34443" d="M12.649,87.766"/>
<g>
	<path fill="#7A5FA9" d="M82.017,74.617L64.954,59.495h-7.886c-8.005,0-14.518-6.584-14.518-14.678v-8.452
		c0-8.093,6.513-14.678,14.518-14.678h25.035c8.005,0,14.518,6.584,14.518,14.678v8.452c0,8.093-6.513,14.678-14.518,14.678h-0.087
		V74.617L82.017,74.617z M57.068,25.688c-5.799,0-10.518,4.79-10.518,10.678v8.452c0,5.888,4.718,10.678,10.518,10.678h9.403
		l11.545,10.231V55.495h4.087c5.8,0,10.518-4.79,10.518-10.678v-8.452c0-5.888-4.718-10.678-10.518-10.678H57.068L57.068,25.688z"/>
	<path fill="#7A5FA9" d="M65.713,57.495l-9.788,0.036c-6.104,0-11.095-5.181-11.095-11.514v-2.078h-2.774
		c-4.577,0-8.323,3.886-8.323,8.636v5.757c0,4.75,3.746,8.637,8.323,8.637h1.387v8.635l9.51-8.635H58.7
		c3.886,0,8.087-3.97,8.994-7.719L65.713,57.495z"/>
	<g>
		<g>
			<path fill="#7A5FA9" d="M70.254,54.229c-7.565,0-13.721-6.01-13.721-13.397s6.155-13.397,13.721-13.397
				c7.564,0,13.719,6.01,13.719,13.397S77.818,54.229,70.254,54.229L70.254,54.229z M70.254,30.436
				c-5.912,0-10.721,4.664-10.721,10.397s4.809,10.397,10.721,10.397c5.91,0,10.719-4.664,10.719-10.397
				S76.164,30.436,70.254,30.436L70.254,30.436z"/>
			<ellipse fill="#7A5FA9" cx="64.192" cy="41.265" rx="1.662" ry="1.421"/>
			<ellipse fill="#7A5FA9" cx="75.629" cy="41.265" rx="1.662" ry="1.421"/>
			<path fill="#7A5FA9" d="M70.041,49.253c-1.6,0-3.242-0.465-4.916-1.395c-0.724-0.402-0.985-1.315-0.583-2.04
				c0.402-0.725,1.317-0.985,2.04-0.583c1.645,0.913,3.879,1.745,6.586,0.041c0.7-0.439,1.626-0.231,2.068,0.472
				c0.441,0.701,0.23,1.627-0.471,2.068C73.242,48.775,71.664,49.253,70.041,49.253L70.041,49.253z"/>
		</g>
		<path fill="#7A5FA9" d="M69.733,34.84c-0.153,0-0.308-0.011-0.462-0.034c-0.825-0.122-1.553-0.557-2.05-1.226
			c-0.854-1.149-0.613-2.778,0.536-3.633c0.963-0.717,2.33-0.515,3.046,0.449c0.294,0.395,0.416,0.881,0.344,1.367
			c-0.071,0.487-0.328,0.917-0.724,1.21c-0.693,0.516-1.682,0.374-2.202-0.324c-0.164-0.221-0.119-0.535,0.103-0.7
			c0.221-0.165,0.534-0.121,0.7,0.102c0.188,0.254,0.55,0.307,0.804,0.119c0.18-0.134,0.298-0.331,0.33-0.553
			c0.033-0.223-0.022-0.444-0.157-0.625c-0.188-0.252-0.462-0.417-0.773-0.462c-0.312-0.047-0.622,0.032-0.873,0.22
			c-0.707,0.525-0.854,1.527-0.33,2.233c0.338,0.455,0.832,0.751,1.393,0.833c0.561,0.082,1.119-0.058,1.574-0.396
			c0.596-0.442,0.982-1.09,1.091-1.823s-0.076-1.465-0.519-2.061c-0.165-0.222-0.118-0.535,0.104-0.7
			c0.218-0.164,0.532-0.12,0.699,0.103c0.602,0.81,0.853,1.805,0.705,2.803c-0.146,0.998-0.674,1.878-1.484,2.48
			C71.044,34.627,70.398,34.84,69.733,34.84L69.733,34.84z"/>
	</g>
</g>
</svg>
