<?xml version="1.0" encoding="ISO-8859-1"?>
<svg xmlns="http://www.w3.org/2000/svg" version="1.1" viewBox="-8 3 67 78">
  <g fill='#336699' stroke='#336699'>
    <path d="m 59.104476,7.6142069 c -2.412,-1.962 -5.458,-3.042 -8.576,-3.042 -4.191,0 -8.121,1.876 -10.78,5.146 l -0.033,0.042 c -0.142,0.125 -0.272,0.2600001 -0.388,0.4030001 l -7.06,8.680999 c -0.558,0.686 -0.817,1.545 -0.732,2.42 0.085,0.877 0.507,1.665 1.195,2.224 0.062,0.049 6.249,4.898 6.638,5.215 0.299,0.243 0.673,0.371 1.081,0.371 1.488,0 3.648,-1.736 4.835,-6.626 l 0.01,-0.052 c 0.096,-0.718 0.462,-2.732 1.005,-3.427 1.305,-1.673 2.85,-2.024 3.917,-2.024 1.222,0 2.517,0.46 3.464,1.23 1.71,1.39 2.483,4.238 0.136,7.203 -0.594,0.751 -2.275,1.372 -2.691,1.479 -3.342,0.806 -5.309,3.247 -5.776,5.308 -0.205,0.898 -0.073,1.617 0.362,1.971 0.911,0.74 3.091,2.426 3.208,2.517 0.579,0.467 1.306,0.726 2.052,0.726 1.002,0 1.942,-0.449 2.578,-1.232 l 7.059,-8.681 c 0.039,-0.046 0.078,-0.098 0.121,-0.159 0.089,-0.104 0.178,-0.209 0.265,-0.315 4.816,-5.922 3.968,-14.613999 -1.89,-19.3779991 z" id="path5687"/>
    <path d="m 43.452476,10.550207 c -0.648,-0.493 -1.573,-0.367 -2.066,0.28 L 5.7244765,57.705206 c 0,0.001 -10e-4,0.001 -10e-4,0.002 0,10e-4 -0.001,10e-4 -0.001,0.002 l -0.198,0.261 c -0.062,0.082 -0.115,0.169 -0.158,0.259 -1.539,2.278 -2.177,5.01 -1.779,7.771 0.427,2.965 1.983,5.604 4.384,7.43 2.0640005,1.57 4.4909995,2.33 6.8919995,2.33 3.37,0 6.687,-1.499 8.861,-4.358 2.834,-3.725 3.001,-8.894 0.415,-12.863 -0.715,-1.096 -1.611,-2.059 -2.663,-2.86 -2.637,-2.007 -5.866,-2.678 -8.874,-2.143 l 31.131,-40.919999 c 0.493,-0.648 0.367,-1.573 -0.281,-2.066 z m -23.762,47.474999 c 0.783,0.595 1.448,1.309 1.978,2.123 1.907,2.928 1.791,6.733 -0.291,9.469 -2.739,3.599 -7.952,4.257 -11.6219992,1.467 -1.7800003,-1.355 -2.9360003,-3.311 -3.2520003,-5.504 -0.313,-2.182 0.24,-4.341 1.56,-6.079 l 0.012,-0.016 c 2.7410005,-3.594 7.9499995,-4.249 11.6149995,-1.46 z" id="path5689"/>
    <path d="m 23.209476,71.956206 -2.252,-1.731 25.471,-33.135 c 0,0 1.84,1.451 2.354,1.607 -0.498,0.649 -0.407,0.53 -25.573,33.259 z" id="path5691"/>
  </g>
</svg>
