<?xml version="1.0" encoding="ISO-8859-1"?>
<svg xmlns="http://www.w3.org/2000/svg" version="1.1" viewBox="1 -8 91 82">
  <g fill="#336699" stroke="#336699">
    <g id="g6340" transform="translate(-364.13793,-138.4326)">
      <g id="g6342">
        <path d="m 409.04,205.414 c -6.503,0 -12.617,-2.533 -17.213,-7.13 -4.599,-4.597 -7.13,-10.711 -7.13,-17.213 0,-6.502 2.531,-12.616 7.13,-17.213 4.596,-4.598 10.709,-7.13 17.213,-7.13 6.502,0 12.616,2.532 17.213,7.13 4.598,4.598 7.131,10.711 7.131,17.213 0,6.502 -2.533,12.616 -7.131,17.213 -4.597,4.597 -10.711,7.13 -17.213,7.13 l 0,0 z m 0,-45.877 c -11.874,0 -21.534,9.659 -21.534,21.533 0,11.873 9.66,21.534 21.534,21.534 11.874,0 21.533,-9.661 21.533,-21.534 0,-11.874 -9.659,-21.533 -21.533,-21.533 l 0,0 z" id="path6344"/>
      </g>
      <g id="g6346">
        <path d="m 412.518,181.136 c 0,2.7 -1.558,4.891 -3.478,4.891 -1.92,0 -3.478,-2.19 -3.478,-4.891 0,-2.701 3.478,-17.605 3.478,-17.605 0,0 3.478,14.904 3.478,17.605 z" id="path6348"/>
        <path d="m 409.04,186.073 c -1.944,0 -3.525,-2.214 -3.525,-4.937 0,-2.675 3.443,-17.468 3.479,-17.616 h 0.091 c 0.035,0.148 3.479,14.941 3.479,17.616 10e-4,2.722 -1.58,4.937 -3.524,4.937 l 0,0 z m 0,-22.335 c -0.411,1.769 -3.432,14.901 -3.432,17.397 0,2.67 1.541,4.844 3.432,4.844 1.892,0 3.43,-2.174 3.43,-4.844 0,-2.495 -3.02,-15.628 -3.43,-17.397 l 0,0 z" id="path6350"/>
      </g>
      <g id="g6352">
        <rect x="405.56299" y="149.18201" width="6.9530001" height="10.208" id="rect6354"/>
        <path d="m 412.563,159.436 h -7.046 v -10.302 h 7.046 v 10.302 l 0,0 z m -6.953,-0.094 h 6.858 v -10.114 h -6.858 v 10.114 l 0,0 z" id="path6356"/>
      </g>
      <g id="g6358">
        <path d="m 388.1,196.412 c -0.531,0.298 -0.986,0.746 -1.294,1.324 l -2.36,4.421 c -0.86,1.613 -0.251,3.619 1.363,4.48 1.613,0.86 3.619,0.25 4.48,-1.363 l 2.191,-4.109 c -1.674,-1.369 -3.149,-2.97 -4.38,-4.753 z" id="path6360"/>
        <path d="m 387.365,207.074 c -0.001,0 -0.001,0 -0.001,0 -0.546,0 -1.091,-0.137 -1.577,-0.396 -1.634,-0.872 -2.254,-2.91 -1.382,-4.543 l 2.358,-4.421 c 0.302,-0.564 0.756,-1.03 1.315,-1.344 l 0.037,-0.021 0.023,0.034 c 1.229,1.781 2.7,3.377 4.371,4.745 l 0.031,0.024 -2.21,4.145 c -0.586,1.098 -1.721,1.777 -2.965,1.777 l 0,0 z m 0.721,-10.601 c -0.526,0.304 -0.954,0.748 -1.24,1.285 l -2.359,4.42 c -0.848,1.59 -0.245,3.57 1.343,4.417 0.472,0.253 1.002,0.385 1.533,0.385 h 10e-4 c 1.208,0 2.314,-0.662 2.881,-1.728 l 2.175,-4.077 c -1.656,-1.359 -3.112,-2.939 -4.334,-4.702 l 0,0 z" id="path6362"/>
      </g>
      <g id="g6364">
        <path d="m 429.823,196.412 c 0.532,0.298 0.988,0.746 1.296,1.324 l 2.358,4.421 c 0.862,1.613 0.252,3.619 -1.362,4.48 -1.613,0.86 -3.619,0.25 -4.48,-1.363 l -2.192,-4.109 c 1.673,-1.369 3.15,-2.97 4.38,-4.753 z" id="path6366"/>
        <path d="m 430.56,207.074 c -1.244,0 -2.38,-0.68 -2.965,-1.777 l -2.211,-4.145 0.029,-0.024 c 1.672,-1.368 3.144,-2.964 4.372,-4.745 l 0.024,-0.034 0.037,0.021 c 0.558,0.314 1.013,0.78 1.313,1.344 l 2.361,4.421 c 0.87,1.634 0.251,3.671 -1.384,4.543 -0.484,0.259 -1.029,0.396 -1.576,0.396 l 0,0 z m -5.058,-5.898 2.175,4.077 c 0.568,1.065 1.673,1.728 2.882,1.728 0.531,0 1.062,-0.132 1.534,-0.385 1.588,-0.846 2.189,-2.827 1.343,-4.417 l -2.357,-4.42 c -0.289,-0.537 -0.716,-0.981 -1.241,-1.285 -1.221,1.762 -2.679,3.342 -4.336,4.702 l 0,0 z" id="path6368"/>
      </g>
      <g id="g6370">
        <path d="m 453.758,142.854 c 0,2.956 -2.397,4.389 -5.354,4.389 h -76.876 c -2.957,0 -5.352,-1.433 -5.352,-4.389 l 0,0 c 7.173,0 75.927,0 87.582,0 l 0,0 z" id="path6372"/>
        <path d="m 448.404,147.289 h -76.876 c -1.54,0 -2.858,-0.378 -3.814,-1.093 -1.038,-0.781 -1.585,-1.936 -1.585,-3.341 v -0.047 h 87.675 v 0.047 c 0,1.406 -0.548,2.561 -1.585,3.341 -0.956,0.715 -2.274,1.093 -3.815,1.093 l 0,0 z m -82.181,-4.387 c 0.026,3.166 2.754,4.295 5.305,4.295 h 76.876 c 2.554,0 5.279,-1.129 5.305,-4.295 h -87.486 l 0,0 z" id="path6374"/>
      </g>
    </g>
  </g>
</svg>
