<?xml version="1.0" encoding="ISO-8859-1"?>
<svg xmlns="http://www.w3.org/2000/svg" version="1.1" viewBox="-9 3 66 78">
  <g stroke='#336699' fill='#336699'>
    <path d="m 17.246075,35.914207 v 21.166 h 9.224 v 4.803 h -9.224 v 6.693 c 0,1.052 0.855,1.907 1.907,1.907 h 18.343 c 1.052,0 1.907,-0.855 1.907,-1.907 v -32.659 l -22.157,-0.003 z" id="path7484"/>
    <line stroke-width="3" x1="1.5" x2="25.5" y1="59.5" y2="59.5"/>
    <line stroke-width="3" x1="13.5" x2="13.5" y1="47.5" y2="71.5"/>
    <path d="m 41.578075,29.294207 c -1.199,-2.5 -2.855,-5.559 -3.703,-6.563 -0.632,-0.752 -1.501,-3.139 -2.125,-5.153 h 1.689 c 1.504,0 2.729,-1.224 2.729,-2.729 V 8.8052069 c 0,-1.505 -1.224,-2.729 -2.729,-2.729 h -18.229 c -1.505,0 -2.729,1.225 -2.729,2.729 v 6.0440001 c 0,1.505 1.224,2.729 2.729,2.729 h 1.372 c -0.442,1.94 -1.14,4.303 -1.834,5.186 -1.377,1.749 -6.333,11.05 -6.333,14.103 v 9.183 h 2.556 v -9.183 c 0,-0.666 0.621,-2.737 2.37,-6.38 1.391,-2.896 2.828,-5.397 3.415,-6.142 1.211,-1.538 2.065,-4.987 2.442,-6.767 h 9.88 c 0.538,1.838 1.692,5.434 2.841,6.799 0.52,0.618 1.95,3.096 3.353,6.023 1.776,3.703 2.405,5.798 2.405,6.466 v 32.563 c 0,1.836 -1.494,3.329 -3.33,3.329 h -20.047 c -0.939,0 -1.785,-0.394 -2.391,-1.021 v 1.167 h -2.349 c 1.073,1.458 2.795,2.41 4.74,2.41 h 20.047 c 3.246,0 5.886,-2.641 5.886,-5.886 v -32.563 c 0.002,-1.679 -1.444,-5.043 -2.655,-7.571 z m -20.499,-14.272 h -1.868 c -0.095,0 -0.173,-0.078 -0.173,-0.174 V 8.8042069 c 0,-0.096 0.078,-0.173 0.173,-0.173 h 18.229 c 0.095,0 0.172,0.077 0.172,0.173 v 6.0440001 c 0,0.096 -0.077,0.174 -0.172,0.174 h -2.417 -13.944 z" id="path7488"/>
  </g>
</svg>
