<?xml version="1.0" encoding="ISO-8859-1"?>
<svg xmlns="http://www.w3.org/2000/svg" version="1.1" id="stethoscope_icon" x="0px" y="0px"
     width="100%" viewBox="-20 -10 100 110">
    <g fill='white' stroke='white'>
        <g id="g6951" transform="translate(-466.45768,-135.4232)">
            <path d="M 492.844,140.228" id="path6953" style="fill:none"/>
        </g>
        <g id="g6955" transform="translate(-466.45768,-135.4232)">
            <path d="M 488.268,140.319" id="path6957" style="fill:none"/>
        </g>
        <g id="g6959" transform="translate(-466.45768,-135.4232)">
            <path d="m 492.844,185.548 c -5.613,0 -11.194,-4.32 -15.715,-12.162 -3.762,-6.527 -6.194,-14.634 -6.194,-20.654 0,-5.174 0.324,-8.39 2.033,-10.568 1.89,-2.406 5.21,-3.038 9.613,-3.247 l 0.133,2.806 c -4.355,0.206 -6.468,0.816 -7.536,2.176 -1.2,1.527 -1.435,4.396 -1.435,8.833 0,5.563 2.284,13.12 5.818,19.251 1.871,3.245 4.016,5.932 6.205,7.77 2.359,1.982 4.74,2.986 7.077,2.986 2.337,0 4.719,-1.003 7.078,-2.986 2.188,-1.837 4.333,-4.524 6.205,-7.77 3.534,-6.131 5.816,-13.688 5.816,-19.251 0,-4.328 -0.241,-7.316 -1.445,-8.839 -1.074,-1.36 -3.197,-1.969 -7.571,-2.172 l 0.129,-2.807 c 4.417,0.207 7.748,0.834 9.646,3.236 1.725,2.183 2.052,5.402 2.052,10.582 0,6.021 -2.431,14.127 -6.193,20.654 -4.521,7.842 -10.101,12.162 -15.716,12.162 l 0,0 z"
                  id="path6961"/>
        </g>
        <g id="g6963" transform="translate(-466.45768,-135.4232)">
            <path d="M 497.373,140.316" id="path6965" style="fill:none"/>
        </g>
        <g id="g6967" transform="translate(-466.45768,-135.4232)">
            <path d="M 492.844,140.228" id="path6969" style="fill:none"/>
        </g>
        <g id="g6971" transform="translate(-466.45768,-135.4232)">
            <circle cx="520.74701" cy="177.61501" r="4.3740001" id="circle6973"
                    d="m 525.12101,177.61501 c 0,2.41569 -1.95831,4.374 -4.374,4.374 -2.41569,0 -4.374,-1.95831 -4.374,-4.374 0,-2.4157 1.95831,-4.374 4.374,-4.374 2.41569,0 4.374,1.9583 4.374,4.374 z"/>
        </g>
        <g id="g6975" transform="translate(-466.45768,-135.4232)">
            <path d="m 505.553,208.455 c -3.729,0 -6.812,-1.3 -9.162,-3.866 -6.198,-6.767 -4.998,-20.02 -4.944,-20.581 l 2.796,0.27 -1.398,-0.135 1.398,0.135 c -0.012,0.125 -1.13,12.579 4.224,18.417 1.842,2.011 4.199,2.971 7.2,2.95 5.892,-0.05 9.579,-2.523 11.6,-7.782 1.857,-4.831 2.044,-11.404 2.077,-17.722 l 2.809,0.014 c -0.035,6.852 -0.234,13.438 -2.263,18.716 -1.144,2.973 -2.816,5.282 -4.972,6.861 -2.422,1.774 -5.525,2.689 -9.226,2.721 -0.046,0.002 -0.091,0.002 -0.139,0.002 l 0,0 z"
                  id="path6977"/>
        </g>
        <g id="g6979" transform="translate(-466.45768,-135.4232)">
            <path d="m 517.63,183.936 h -2.334 l -0.27,-0.25 c -1.719,-1.591 -2.706,-3.845 -2.706,-6.187 0,-4.646 3.78,-8.426 8.426,-8.426 4.646,0 8.426,3.78 8.426,8.426 0,2.292 -0.919,4.58 -2.461,6.122 l -0.273,0.273 -2.449,0.004 -0.003,-1.873 1.657,-0.004 c 1.043,-1.188 1.657,-2.85 1.657,-4.523 0,-3.613 -2.939,-6.553 -6.554,-6.553 -3.611,0 -6.552,2.939 -6.552,6.553 0,1.702 0.67,3.345 1.85,4.562 h 1.586 v 1.876 l 0,0 z"
                  id="path6981"/>
        </g>
        <g id="g6983" transform="translate(-466.45768,-135.4232)">
            <path d="m 487.518,140.228 c 0,1.878 -1.523,3.402 -3.402,3.402 -1.879,0 -6.212,-1.524 -6.212,-3.402 0,-1.879 4.333,-3.403 6.212,-3.403 1.879,0 3.402,1.523 3.402,3.403 z"
                  id="path6985"/>
        </g>
        <g id="g6987" transform="translate(-466.45768,-135.4232)">
            <path d="m 498.131,140.319 c 0,1.879 1.523,3.402 3.402,3.402 1.879,0 6.212,-1.523 6.212,-3.402 0,-1.88 -4.333,-3.402 -6.212,-3.402 -1.879,0 -3.402,1.522 -3.402,3.402 z"
                  id="path6989"/>
        </g>
        <text x="6" y="94" style="font-family:'Arial Narrow'; font-size: 18px">Health</text>
    </g>
</svg>
