<?xml version="1.0" encoding="ISO-8859-1"?>
<svg xmlns="http://www.w3.org/2000/svg" version="1.1" id="Layer_1" x="0px" y="0px"
     width="100%" viewBox="-15 -10 105 110">
    <g fill="white" stroke="white">
        <g id="g3560" transform="translate(4.5605701,2.280285)">
            <g transform="translate(-330.64133,-282.75534)" id="g3307">
                <g id="g3309">
                    <g id="g3311">
                        <path id="path3313"
                              d="m 360.601,354.204 c -7.983,0 -15.488,-3.109 -21.132,-8.754 -5.645,-5.644 -8.753,-13.148 -8.753,-21.131 0,-7.983 3.109,-15.488 8.753,-21.132 5.644,-5.646 13.149,-8.754 21.132,-8.754 7.982,0 15.487,3.108 21.131,8.754 5.645,5.643 8.753,13.149 8.753,21.132 0,7.982 -3.108,15.487 -8.753,21.131 -5.644,5.645 -13.149,8.754 -21.131,8.754 l 0,0 z m 0,-57.026 c -14.966,0 -27.142,12.175 -27.142,27.142 0,14.965 12.176,27.141 27.142,27.141 14.965,0 27.141,-12.176 27.141,-27.141 0,-14.967 -12.176,-27.142 -27.141,-27.142 l 0,0 z"/>
                    </g>
                </g>
                <path id="path3315"
                      d="m 360.647,283.497 c -2.611,0 -5.794,0.4 -6.892,1.527 -0.353,0.361 -0.419,0.725 -0.413,0.967 0.064,2.568 0.001,4.26 0,4.276 l -0.018,0.476 h 3.71 v 4.408 h 6.95 v -4.408 h 3.692 v -4.763 c 0,-2.364 -5.855,-2.483 -7.029,-2.483 z"/>
                <path id="path3317"
                      d="m 344.959,298.875 0.031,-0.09 -0.217,-0.16 c -0.105,-0.141 -0.467,-0.629 -1.688,-2.276 -0.477,-0.644 -1.187,-0.984 -2.054,-0.984 -1.603,0 -3.523,1.226 -4.282,2.732 -0.505,1.003 -0.448,2.008 0.162,2.83 l 1.688,2.277 c 0.005,0.006 0.009,0.013 0.015,0.02 l 0.033,0.044 0.001,-10e-4 c 0.072,0.088 0.168,0.175 0.338,0.186 l 0.212,0.014 0.146,-0.154 c 0.008,-0.008 0.017,-0.017 0.024,-0.026 l 5.219,-3.869 0.18,0.007 0.067,-0.189 0.253,-0.188 -0.128,-0.173 z"/>
                <path id="path3319"
                      d="m 373.742,307.608 c -0.207,-0.447 -0.637,-0.713 -1.152,-0.713 -0.721,0 -1.54,0.499 -2.305,1.402 -1.646,1.946 -7.647,9.039 -10.328,12.207 -0.244,-0.05 -0.493,-0.077 -0.743,-0.077 -1.06,0 -2.061,0.464 -2.745,1.272 -0.62,0.732 -0.917,1.663 -0.838,2.62 0.079,0.957 0.528,1.826 1.261,2.445 0.648,0.549 1.472,0.851 2.32,0.851 l 0,0 c 1.06,0 2.061,-0.464 2.746,-1.273 0.861,-1.017 1.083,-2.417 0.599,-3.641 l 10.326,-12.205 c 0.889,-1.051 1.21,-2.13 0.859,-2.888 z"/>
                <g id="g3321">
                    <circle d="m 363.04001,305.367 c 0,1.34758 -1.09243,2.44 -2.44,2.44 -1.34758,0 -2.44,-1.09242 -2.44,-2.44 0,-1.34757 1.09242,-2.44 2.44,-2.44 1.34757,0 2.44,1.09243 2.44,2.44 z"
                            id="circle3323" r="2.4400001" cy="305.367" cx="360.60001"/>
                </g>
                <g id="g3325">
                    <circle d="m 363.04001,343.00299 c 0,1.34758 -1.09243,2.44 -2.44,2.44 -1.34758,0 -2.44,-1.09242 -2.44,-2.44 0,-1.34757 1.09242,-2.44 2.44,-2.44 1.34757,0 2.44,1.09243 2.44,2.44 z"
                            id="circle3327" r="2.4400001" cy="343.00299" cx="360.60001"/>
                </g>
                <g id="g3329">
                    <circle d="m 382.211,325.20901 c 0,1.34758 -1.09243,2.44 -2.44,2.44 -1.34758,0 -2.44,-1.09242 -2.44,-2.44 0,-1.34757 1.09242,-2.44 2.44,-2.44 1.34757,0 2.44,1.09243 2.44,2.44 z"
                            id="circle3331" r="2.4400001" cy="325.20901" cx="379.771"/>
                </g>
                <g id="g3333">
                    <circle d="m 343.92801,325.20901 c 0,1.34758 -1.09243,2.44 -2.44,2.44 -1.34758,0 -2.44,-1.09242 -2.44,-2.44 0,-1.34757 1.09242,-2.44 2.44,-2.44 1.34757,0 2.44,1.09243 2.44,2.44 z"
                            id="circle3335" r="2.4400001" cy="325.20901" cx="341.48801"/>
                </g>
                <g id="g3337">
                    <circle d="m 349.23599,311.58701 c 0,1.34757 -1.09243,2.44 -2.44,2.44 -1.34757,0 -2.44,-1.09243 -2.44,-2.44 0,-1.34758 1.09243,-2.44 2.44,-2.44 1.34757,0 2.44,1.09242 2.44,2.44 z"
                            id="circle3339" r="2.4400001" cy="311.58701" cx="346.79599"/>
                </g>
                <g id="g3341">
                    <circle d="m 376.24399,337.86301 c 0,1.34757 -1.09243,2.44 -2.44,2.44 -1.34758,0 -2.44,-1.09243 -2.44,-2.44 0,-1.34758 1.09242,-2.44 2.44,-2.44 1.34757,0 2.44,1.09242 2.44,2.44 z"
                            id="circle3343" r="2.4400001" cy="337.86301" cx="373.80399"/>
                </g>
                <g id="g3345">
                    <circle d="m 376.94101,312.45901 c 0,1.34758 -1.09243,2.44 -2.44,2.44 -1.34758,0 -2.44,-1.09242 -2.44,-2.44 0,-1.34757 1.09242,-2.44 2.44,-2.44 1.34757,0 2.44,1.09243 2.44,2.44 z"
                            id="circle3347" r="2.4400001" cy="312.45901" cx="374.50101"/>
                </g>
                <g id="g3349">
                    <circle d="m 349.93301,337.86301 c 0,1.34757 -1.09242,2.44 -2.44,2.44 -1.34757,0 -2.44,-1.09243 -2.44,-2.44 0,-1.34758 1.09243,-2.44 2.44,-2.44 1.34758,0 2.44,1.09242 2.44,2.44 z"
                            id="circle3351" r="2.4400001" cy="337.86301" cx="347.49301"/>
                </g>
            </g>
        </g>
        <text x="-16" y="93" style="font-family:'Arial Narrow'; font-size: 18px">Breastfeeding</text>
    </g>
</svg>
