<?xml version="1.0" encoding="ISO-8859-1"?>
<svg xmlns="http://www.w3.org/2000/svg" version="1.1" x="0px" y="0px" width="100%"
     viewBox="-20 -10 100 110">
    <g fill='white' stroke='white'>
        <path d="m 43.080185,64.557398 c 0,2.369 -1.92,4.29 -4.291,4.29 h -17.013 c -2.37,0 -4.29,-1.921 -4.29,-4.29 v -22.732 c 0,-2.369 1.92,-7.149 4.29,-7.149 h 17.013 c 2.37,0 4.291,4.78 4.291,7.149 v 22.732 z"
              id="path4816" style="fill:none;stroke-width:2"/>
        <path d="m 35.280185,24.551398 h -9.924 c -1.996,0 -3.616,1.618 -3.616,3.616 v 3.617 h 3.616 9.924 3.617 v -3.617 c 0,-1.997 -1.619,-3.616 -3.617,-3.616 z"
              id="path4818"/>
        <line x1="35.068192" y1="46.103394" x2="42.630188" y2="46.103394" id="line4820"
              style="fill:none;stroke-width:2;stroke-linecap:round"/>
        <line x1="35.068192" y1="50.822403" x2="42.630188" y2="50.822403" id="line4822"
              style="fill:none;stroke-width:2;stroke-linecap:round"/>
        <line x1="35.068192" y1="55.542404" x2="42.630188" y2="55.542404" id="line4824"
              style="fill:none;stroke-width:2;stroke-linecap:round"/>
        <line x1="35.068192" y1="60.261398" x2="42.630188" y2="60.261398" id="line4826"
              style="fill:none;stroke-width:2;stroke-linecap:round"/>
        <path d="m 30.319185,18.759398 c -3.373,0 -6.107,2.733 -6.107,6.106 h 12.214 c 0,-3.373 -2.734,-6.106 -6.107,-6.106 z"
              id="path4828"/>
        <path d="m 1.382185,21.991398 c 2.156,1.29 16.542,-0.862 16.542,-0.862 l 8.578,6.582 5.052,-6.817 -8.71,-6.68 c 0,0 -1.956,-14.99499988 -3.817,-16.0369999 -6.527,11.474 -9.045,14.7049999 -17.645,23.8139999 z"
              id="path4830"/>
        <path d="m 59.591185,35.472398 c -1.938,-3.387 -7.479,-15.473 -10.245,-18.438 -1.087,-1.167 -9.957,-3.316 -14.793,-3.826 -3.595,-0.378 -4.308,-0.194 -4.269,1.974 0.036,1.994 2.402,0.954 5.245,2.778 2.01,1.291 2.836,2.894 3.369,3.851 1.983,-0.891 7.506,-0.84 9.848,3.176 2.531,4.338 7.952,12.291 9.039,13.014 1.083,0.725 3.252,0.002 1.806,-2.529 z"
              id="path4832" style="fill:none;stroke-width:2"/>
        <text x="0" y="90" style="font-family:'Arial Narrow'; font-size: 18px">Pumping</text>
    </g>
</svg>
